<?xml version="1.0" encoding="utf-8"?>
<!-- Generator: Adobe Illustrator 25.2.1, SVG Export Plug-In . SVG Version: 6.00 Build 0)  -->
<svg version="1.1" id="Ebene_1" xmlns="http://www.w3.org/2000/svg" xmlns:xlink="http://www.w3.org/1999/xlink" x="0px" y="0px"
	 viewBox="0 0 595.28 841.89" style="enable-background:new 0 0 595.28 841.89;" xml:space="preserve">
<style type="text/css">
	.st0{fill:#00A19A;}
	.st1{fill:#AFAFAF;}
	.st2{fill:#FFFFFF;}
</style>
<g>
	<path class="st0" d="M538.57,663.54c11.69,33.5,19.57-1.91-83.67,0S292.76,485.39,292.76,485.39h-90.84c0,0,19.92,213.69,0,178.15
		s-41.01-34.46-64.47,0s45.37-448.08,0-448.08s135.77,0,135.77,0c29.3,0,53.72,1.76,73.26,5.27c19.54,3.51,37.12,9.78,52.74,18.81
		c17.58,10.23,31.31,23.12,41.19,38.67c9.87,15.55,14.81,35.26,14.81,59.13c0,32.3-8.79,59.33-26.37,81.1
		c-17.58,21.77-41.79,38.17-72.61,49.2C356.24,467.63,526.88,630.04,538.57,663.54z M387.82,341.54c0-12.84-2.44-24.23-7.33-34.16
		c-4.88-9.93-12.97-18.31-24.26-25.13c-9.33-5.82-20.4-9.88-33.21-12.19c-12.81-2.3-27.89-3.46-45.26-3.46h-75.86v169.12h65.12
		c20.4,0,38.2-1.66,53.39-4.96c15.19-3.31,28.11-9.48,38.74-18.51c9.77-8.43,16.98-18.1,21.65-29.04
		C385.49,372.29,387.82,358.39,387.82,341.54z"/>
</g>
<path class="st1" d="M-20,592.82"/>
<path class="st2" d="M4.52,592.33c0.06,0.13,0.15,0.22,0.25,0.27c5.41,2.65,39.91-56.85,77.93-88.11
	c66.97-55.05,124.81-4.77,226.01-60.61c23.83-13.15,55.05-31.4,78.91-67.49c54.5-82.45,3.81-286.77,0.41-184.44
	C386.42,239.8,320,328.17,282.07,341.39C153.04,386.35-1.22,580.87,4.52,592.33z"/>
</svg>
